<?xml version="1.0" encoding="UTF-8" standalone="no"?>
<!-- Created with Inkscape (http://www.inkscape.org/) -->

<svg
   xmlns:dc="http://purl.org/dc/elements/1.1/"
   xmlns:cc="http://creativecommons.org/ns#"
   xmlns:rdf="http://www.w3.org/1999/02/22-rdf-syntax-ns#"
   xmlns:svg="http://www.w3.org/2000/svg"
   xmlns="http://www.w3.org/2000/svg"
   xmlns:sodipodi="http://sodipodi.sourceforge.net/DTD/sodipodi-0.dtd"
   xmlns:inkscape="http://www.inkscape.org/namespaces/inkscape"
   width="1024"
   height="650"
   id="svg2"
   version="1.1"
   inkscape:version="0.48.3.1 r9886"
   sodipodi:docname="RD_Logo_blue_1024.svg"
   inkscape:export-filename="/home/wus/Repos/RD_web.git/assets/RD_Logo_blue_horizontal_1024.png"
   inkscape:export-xdpi="90"
   inkscape:export-ydpi="90">
  <defs
     id="defs4">
    <clipPath
       id="clipPath3885"
       clipPathUnits="userSpaceOnUse">
      <path
         id="path3887"
         d="M 0,2021.52 0,0 l 7418.8,0 0,2021.52 -7418.8,0 z"
         inkscape:connector-curvature="0" />
    </clipPath>
  </defs>
  <sodipodi:namedview
     id="base"
     pagecolor="#ffffff"
     bordercolor="#666666"
     borderopacity="1.0"
     inkscape:pageopacity="0.0"
     inkscape:pageshadow="2"
     inkscape:zoom="0.35"
     inkscape:cx="899.39733"
     inkscape:cy="469.97871"
     inkscape:document-units="px"
     inkscape:current-layer="g3301"
     showgrid="false"
     inkscape:window-width="1920"
     inkscape:window-height="993"
     inkscape:window-x="0"
     inkscape:window-y="27"
     inkscape:window-maximized="1"
     showguides="true"
     inkscape:guide-bbox="true"
     borderlayer="true">
    <sodipodi:guide
       orientation="0,1"
       position="349.21875,194.53125"
       id="guide3643" />
    <sodipodi:guide
       orientation="0,1"
       position="335.15625,114.0625"
       id="guide3645" />
    <sodipodi:guide
       orientation="1,0"
       position="128.125,40.625"
       id="guide3647" />
  </sodipodi:namedview>
  <metadata
     id="metadata7">
    <rdf:RDF>
      <cc:Work
         rdf:about="">
        <dc:format>image/svg+xml</dc:format>
        <dc:type
           rdf:resource="http://purl.org/dc/dcmitype/StillImage" />
        <dc:title></dc:title>
      </cc:Work>
    </rdf:RDF>
  </metadata>
  <g
     inkscape:label="Layer 1"
     inkscape:groupmode="layer"
     id="layer1"
     transform="translate(0,-402.36218)">
    <g
       transform="matrix(1.25,0,0,-1.25,833.83929,1018.7072)"
       inkscape:label="ink_ext_XXXXXX"
       id="g3297">
      <g
         transform="scale(0.1,0.1)"
         id="g3299">
        <g
           id="g3301">
          <rect
             style="fill:#ffffff;fill-rule:evenodd;stroke:#000000;stroke-width:6.03893185px;stroke-linecap:butt;stroke-linejoin:miter;stroke-opacity:1"
             id="rect3136"
             width="13906.799"
             height="7936.8823"
             x="-9231.6963"
             y="-6726.0264"
             transform="scale(1,-1)"
             inkscape:export-filename="/home/wus/Repos/RD_web.git/assets/RD_Logo_blue_1024.png"
             inkscape:export-xdpi="40.080002"
             inkscape:export-ydpi="40.080002" />
          <g
             transform="matrix(10,0,0,10,-6670.7143,-270.3424)"
             inkscape:label="ink_ext_XXXXXX"
             id="g3811">
            <g
               transform="scale(0.1,0.1)"
               id="g3813" />
          </g>
          <g
             transform="matrix(10,0,0,10,-6670.7143,-270.3424)"
             inkscape:label="ink_ext_XXXXXX"
             id="g3844">
            <g
               transform="scale(0.1,0.1)"
               id="g3846" />
          </g>
          <g
             id="g3369"
             transform="matrix(1.0419457,0,0,1.0419457,-118.68159,-211.39703)"
             inkscape:export-filename="/home/wus/Repos/RD_web.git/assets/RD_Logo_blue_1024.png"
             inkscape:export-xdpi="40.080002"
             inkscape:export-ydpi="40.080002">
            <path
               inkscape:connector-curvature="0"
               d="m -6031.4076,2544.1373 297.34,0 c 48.953,0 93.605,-4.289 129.722,-45.879 22.016,-25.711 28.126,-58.14 28.126,-83.23 0,-33.039 -11,-72.18 -41.598,-95.449 -23.246,-17.711 -53.223,-23.84 -70.352,-26.911 l 130.91,-180.488 -127.25,0 -115.632,173.758 -122.981,0 0,-173.758 -108.285,0 0,431.957 z m 108.285,-181.699 172.539,0 c 23.242,0 64.852,3.039 64.852,51.383 0,8.578 -1.227,23.25 -8.571,33.636 -7.945,10.43 -18.355,20.821 -61.187,20.821 l -167.633,0 0,-105.84"
               style="fill:#0f518b;fill-opacity:1;fill-rule:nonzero;stroke:none"
               id="path3889" />
            <path
               inkscape:connector-curvature="0"
               d="m -5483.8456,2544.1373 402.575,0 0,-77.699 -294.282,0 0,-97.277 284.5,0 0,-76.493 -284.5,0 0,-103.39 306.524,0 0,-77.098 -414.817,0 0,431.957"
               style="fill:#0f518b;fill-opacity:1;fill-rule:nonzero;stroke:none"
               id="path3891" />
            <path
               inkscape:connector-curvature="0"
               d="m -4922.2076,2246.1683 c 24.48,-52 86.26,-67.89 145.01,-67.89 26.31,0 108.9,4.269 108.9,56.89 0,31.192 -29.98,38.539 -53.24,42.809 -17.74,3.684 -106.44,17.133 -126.63,20.82 -39.77,7.332 -140.12,26.301 -140.12,124.18 0,21.434 6.13,43.461 17.13,61.191 36.1,58.129 115.64,73.422 184.17,73.422 63.02,0 111.35,-9.179 156.01,-33.652 44.05,-23.859 63.01,-55.66 71.58,-69.75 l -102.79,-25.699 c -3.65,6.742 -12.22,22.64 -37.93,35.5 -28.76,14.07 -66.08,16.511 -86.87,16.511 -47.73,0 -96.67,-9.179 -96.67,-50.16 0,-28.14 25.09,-35.48 57.51,-42.84 17.73,-3.66 105.83,-18.339 126.03,-22.632 50.18,-9.18 135.21,-27.528 135.21,-122.36 0,-138.879 -165.19,-143.769 -219.62,-143.769 -70.99,0 -180.5,12.218 -236.18,121.73 l 98.5,25.699"
               style="fill:#0f518b;fill-opacity:1;fill-rule:nonzero;stroke:none"
               id="path3893" />
            <path
               inkscape:connector-curvature="0"
               d="m -4476.8076,2544.1373 402.57,0 0,-77.699 -294.27,0 0,-97.277 284.48,0 0,-76.493 -284.48,0 0,-103.39 306.51,0 0,-77.098 -414.81,0 0,431.957"
               style="fill:#0f518b;fill-opacity:1;fill-rule:nonzero;stroke:none"
               id="path3895" />
            <path
               inkscape:connector-curvature="0"
               d="m -3830.1276,2544.1373 116.86,0 208.64,-431.957 -121.15,0 -36.7,81.391 -221.48,0 -36.7,-81.391 -118.09,0 208.62,431.957 z m 68.53,-132.777 c -3.06,5.508 -5.51,11.64 -7.34,17.148 -1.83,5.512 -3.06,11.012 -3.67,17.121 -1.84,-5.511 -3.07,-10.398 -4.28,-15.289 -2.45,-5.511 -4.28,-11.031 -6.73,-16.519 l -65.47,-143.782 151.73,0 -64.24,141.321"
               style="fill:#0f518b;fill-opacity:1;fill-rule:nonzero;stroke:none"
               id="path3897" />
            <path
               inkscape:connector-curvature="0"
               d="m -3456.2976,2544.1373 297.35,0 c 48.94,0 93.6,-4.289 129.7,-45.879 22.02,-25.711 28.14,-58.14 28.14,-83.23 0,-33.039 -11.01,-72.18 -41.61,-95.449 -23.24,-17.711 -53.22,-23.84 -70.35,-26.911 l 130.92,-180.488 -127.26,0 -115.62,173.758 -122.98,0 0,-173.758 -108.29,0 0,431.957 z m 108.29,-181.699 172.54,0 c 23.24,0 64.85,3.039 64.85,51.383 0,8.578 -1.22,23.25 -8.57,33.636 -7.95,10.43 -18.36,20.821 -61.18,20.821 l -167.64,0 0,-105.84"
               style="fill:#0f518b;fill-opacity:1;fill-rule:nonzero;stroke:none"
               id="path3899" />
            <path
               inkscape:connector-curvature="0"
               d="m -2424.1676,2259.0283 c -7.96,-26.93 -17.75,-58.141 -56.29,-93.617 -34.87,-31.801 -92.38,-67.903 -202.52,-67.903 -153.56,0 -260.02,80.141 -260.02,231.27 0,162.742 129.71,228.812 266.15,228.812 49.55,0 191.49,-11.011 247.78,-134.59 l -118.69,-14.703 c -11.62,18.364 -45.28,69.762 -129.09,69.762 -97.89,0 -153.57,-67.922 -153.57,-150.512 0,-94.218 74.03,-150.519 156.02,-150.519 93.6,0 122.35,55.07 136.43,81.39 l 113.8,0.61"
               style="fill:#0f518b;fill-opacity:1;fill-rule:nonzero;stroke:none"
               id="path3901" />
            <path
               inkscape:connector-curvature="0"
               d="m -2360.5476,2544.1373 108.29,0 0,-166.43 261.26,0 0,166.43 108.29,0 0,-431.957 -108.29,0 0,185.391 -261.26,0 0,-185.391 -108.29,0 0,431.957"
               style="fill:#0f518b;fill-opacity:1;fill-rule:nonzero;stroke:none"
               id="path3903" />
            <path
               inkscape:connector-curvature="0"
               d="m -1783.0076,2544.1373 215.99,0 c 39.15,0 75.22,-1.219 115.02,-20.808 80.15,-39.161 111.34,-121.129 111.34,-196.379 0,-83.223 -36.1,-146.243 -87.48,-179.903 -50.78,-33.027 -109.51,-34.867 -159.08,-34.867 l -195.79,0 0,431.957 z m 42.83,-395.859 137.68,0 c 57.49,0 120.51,0.621 167,42.222 38.57,34.879 50.78,85.039 50.78,134 0,45.879 -12.21,90.528 -37.93,123.559 -45.26,59.359 -111.95,59.961 -143.77,59.961 l -173.76,0 0,-359.742"
               style="fill:#0f518b;fill-opacity:1;fill-rule:nonzero;stroke:none"
               id="path3905" />
            <path
               inkscape:connector-curvature="0"
               d="m -949.1076,2544.1373 c 29.37,0 64.86,0 94.83,-16.508 33.04,-18.98 54.46,-57.531 54.46,-101.582 0,-31.187 -9.78,-66.679 -41.6,-91.769 -33.04,-25.688 -78.93,-28.149 -111.97,-29.367 l 173.77,-192.731 -58.12,0 -170.71,192.731 -197.6,0 0,-192.731 -41.61,0 0,431.957 298.55,0 z m -256.94,-202.519 231.86,0 c 44.05,0 83.21,1.23 108.29,28.152 14.69,15.898 20.8,38.551 20.8,58.141 0,28.117 -12.84,51.367 -29.36,63.609 -22.03,17.129 -49.55,17.129 -73.41,17.129 l -258.18,0 0,-167.031"
               style="fill:#0f518b;fill-opacity:1;fill-rule:nonzero;stroke:none"
               id="path3907" />
            <path
               inkscape:connector-curvature="0"
               d="m -214.3176,2329.3873 c 0,-124.816 -99.72,-228.84 -258.17,-228.84 -151.13,0 -252.07,97.301 -252.07,228.231 0,127.25 99.11,228.812 256.35,228.812 171.31,-1.23 253.89,-117.472 253.89,-228.203 m -464.97,-2.457 c 0,-118.691 91.78,-189.672 210.46,-189.672 114.4,0 207.42,69.141 207.42,194.571 0,54.449 -22.64,116.23 -75.88,151.742 -20.18,13.457 -72.81,39.758 -144.38,36.707 -138.29,-6.117 -197.62,-103.391 -197.62,-193.348"
               style="fill:#0f518b;fill-opacity:1;fill-rule:nonzero;stroke:none"
               id="path3909" />
            <path
               inkscape:connector-curvature="0"
               d="m 321.6224,2544.1373 0,-431.957 -38.53,0 -370.15,376.899 0,-376.899 -38.55,0 0,431.957 38.55,0 370.15,-378.726 0,378.726 38.53,0"
               style="fill:#0f518b;fill-opacity:1;fill-rule:nonzero;stroke:none"
               id="path3911" />
            <path
               inkscape:connector-curvature="0"
               d="m 448.2724,2544.1373 413.59,0 0,-36.117 -371.38,0 0,-151.09 343.24,0 0,-36.109 -343.24,0 0,-172.543 389.11,0 0,-36.098 -431.32,0 0,431.957"
               style="fill:#0f518b;fill-opacity:1;fill-rule:nonzero;stroke:none"
               id="path3913" />
            <path
               inkscape:connector-curvature="0"
               d="m 984.8324,2237.6103 c 14.68,-34.86 37.94,-75.25 116.86,-91.781 23.24,-4.891 47.71,-6.711 71.59,-6.711 100.94,0 169.47,39.761 169.47,99.101 0,55.68 -54.46,67.289 -147.45,79.551 -26.92,3.051 -53.84,6.73 -80.16,10.391 -36.71,5.507 -64.85,9.777 -88.1,20.808 -33.64,15.899 -53.84,44.051 -53.84,81.371 0,64.84 63.02,125.418 198.84,125.418 82.61,0 152.34,-23.871 203.13,-85.051 l -39.14,-21.41 c -13.48,17.75 -52.02,69.153 -167.04,69.153 -91.77,0 -151.73,-35.493 -151.73,-86.289 0,-36.704 34.86,-50.153 61.78,-55.672 20.81,-4.289 124.2,-17.731 148.08,-21.41 38.54,-6.11 72.8,-12.25 96.67,-22.622 37.3,-16.527 63.6,-47.726 63.6,-91.789 0,-23.23 -7.94,-45.257 -18.95,-62.39 -20.8,-31.821 -71.57,-77.11 -191.5,-77.11 -77.09,0 -117.47,11.012 -151.73,28.762 -54.46,28.149 -69.12,58.738 -85.66,90.547 l 45.28,17.133"
               style="fill:#0f518b;fill-opacity:1;fill-rule:nonzero;stroke:none"
               id="path3915" />
          </g>
          <g
             id="g3341"
             transform="matrix(1.0419457,0,0,1.0419457,-118.68159,-211.39703)"
             inkscape:export-filename="/home/wus/Repos/RD_web.git/assets/RD_Logo_blue_1024.png"
             inkscape:export-xdpi="40.080002"
             inkscape:export-ydpi="40.080002">
            <path
               inkscape:connector-curvature="0"
               d="m -5341.2706,1766.7077 0,241.4996 64.297,0 c 25.648,-0.347 47.886,-0.347 65.332,-7.199 34.535,-13.687 60.539,-56.437 60.539,-112.879 0,-45.1403 -16.426,-83.1012 -43.11,-103.9684 -21.879,-17.1016 -43.765,-17.4532 -84.48,-17.4532 l -62.578,0 z m 23.258,20.543 36.25,0 c 19.843,0 47.543,-0.3633 63.621,7.168 23.257,10.6094 44.129,44.4609 44.129,92.6796 0,41.402 -16.426,81.07 -45.848,94.07 -13.332,5.821 -26.332,5.821 -56.094,5.821 l -42.058,0 0,-199.7386"
               style="fill:#0f518b;fill-opacity:1;fill-rule:nonzero;stroke:none"
               id="path3917" />
            <path
               inkscape:connector-curvature="0"
               d="m -5082.0286,1766.7077 22.9219,0 0,241.5 -22.9219,0 0,-241.5 z"
               style="fill:#0f518b;fill-opacity:1;fill-rule:nonzero;stroke:none"
               id="path3919" />
            <path
               inkscape:connector-curvature="0"
               d="m -4836.8076,1949.6883 c -2.05,6.172 -4.79,14.371 -10.26,21.562 -11.97,16.758 -31.47,24.289 -52.34,24.289 -25.99,0 -56.77,-10.96 -56.77,-43.101 0,-29.418 27.03,-37.949 40.71,-42.059 6.84,-2.07 41.37,-10.941 48.9,-13.691 13.01,-4.109 55.76,-18.117 55.76,-63.9571 0,-33.8711 -28.39,-72.1602 -90.31,-72.1602 -25.64,0 -44.11,6.4883 -56.77,14.6875 -18.48,12.3203 -28.73,30.1094 -32.84,52.332 l 22.92,11.9883 c 0.35,-9.5781 1.37,-19.5 5.82,-28.0507 10.95,-22.5782 35.91,-31.1172 60.87,-31.1172 46.54,0 67.05,25.6367 67.05,51.289 0,17.461 -8.22,27.3711 -14.71,32.4884 -10.95,9.23 -24.97,12.66 -56.78,20.871 -34.2,8.898 -72.85,21.559 -72.85,66.352 0,47.539 42.07,62.929 79.7,62.929 61.9,0 77.63,-39.672 83.11,-53 l -21.21,-11.652"
               style="fill:#0f518b;fill-opacity:1;fill-rule:nonzero;stroke:none"
               id="path3921" />
            <path
               inkscape:connector-curvature="0"
               d="m -4564.9076,1819.3991 c -23.26,-51.3086 -59.51,-58.8398 -89.62,-58.8398 -16.75,0 -51.98,2.3906 -77.29,32.1602 -18.12,21.2109 -28.04,55.3984 -28.04,93.0308 0,51.297 18.45,128.59 103.28,128.59 64.99,0 82.77,-39.332 93.37,-62.59 l -22.91,-11.972 c -4.45,19.84 -15.73,34.562 -25.65,42.062 -16.07,11.981 -35.24,12.321 -43.78,12.321 -25.99,0 -44.13,-7.512 -59.51,-28.372 -16.76,-22.921 -20.87,-50.64 -20.87,-76.628 0,-16.411 2.06,-55.7622 20.19,-79.6918 18.8,-25.6485 46.84,-28.3907 63.95,-28.3907 11.63,0 25.31,1.3711 37.97,10.2617 8.55,5.8204 21.89,19.8282 27.7,41.0586 l 21.21,-13"
               style="fill:#0f518b;fill-opacity:1;fill-rule:nonzero;stroke:none"
               id="path3923" />
            <path
               inkscape:connector-curvature="0"
               d="m -4330.6276,1792.0398 c -23.61,-27.711 -52.68,-31.4805 -72.51,-31.4805 -29.76,0 -54.39,9.2383 -74.24,32.8203 -17.1,19.8516 -30.43,51.668 -30.43,94.4097 0,66.7 32.83,126.551 104.67,126.551 80.03,0 103.63,-70.453 103.29,-125.172 -0.35,-36.9488 -11.29,-74.2184 -30.78,-97.1285 m -72.51,202.4805 c -61.58,0 -80.37,-60.891 -80.37,-107.063 0,-44.8199 17.77,-106.3785 79.33,-106.3785 74.57,0 79.7,88.2505 79.7,107.7425 0.35,43.777 -17.45,105.699 -78.66,105.699"
               style="fill:#0f518b;fill-opacity:1;fill-rule:nonzero;stroke:none"
               id="path3925" />
            <path
               inkscape:connector-curvature="0"
               d="m -4160.2376,1766.7077 -20.52,0 -88.58,241.4996 25.3,0 73.89,-210.0191 76.26,210.0191 24.29,0 -90.64,-241.4996"
               style="fill:#0f518b;fill-opacity:1;fill-rule:nonzero;stroke:none"
               id="path3927" />
            <path
               inkscape:connector-curvature="0"
               d="m -3855.5076,1766.7077 -166.23,0 0,241.4996 157.69,0 0,-21.218 -134.77,0 0,-85.852 122.11,0 0,-21.199 -122.11,0 0,-92.0196 143.31,0 0,-21.211"
               style="fill:#0f518b;fill-opacity:1;fill-rule:nonzero;stroke:none"
               id="path3929" />
            <path
               inkscape:connector-curvature="0"
               d="m -3599.3376,1766.7077 -28.73,0 -76.27,107.0506 -56.78,0 0,-107.0506 -22.93,0 0,241.8206 67.74,0 c 42.06,-0.321 52.65,-0.321 67.71,-5.481 39.68,-14.008 42.4,-51.968 42.4,-63.937 0,-25.313 -10.94,-39.352 -18.12,-46.531 -17.43,-16.418 -40.36,-17.79 -53.35,-18.821 l 78.33,-107.0506 z m -161.78,126.9026 56.78,0 c 15.72,0 30.43,0.347 40.68,2.39 25.67,5.137 34.9,24.629 34.9,44.118 0,23.621 -11.64,41.39 -35.23,46.171 -6.85,1.379 -9.92,1.379 -40.35,1.719 l -56.78,0 0,-94.398"
               style="fill:#0f518b;fill-opacity:1;fill-rule:nonzero;stroke:none"
               id="path3931" />
            <path
               inkscape:connector-curvature="0"
               d="m -3531.9776,1766.7077 22.9102,0 0,241.5 -22.9102,0 0,-241.5 z"
               style="fill:#0f518b;fill-opacity:1;fill-rule:nonzero;stroke:none"
               id="path3933" />
            <path
               inkscape:connector-curvature="0"
               d="m -3235.7876,1766.7077 -22.57,0 -141.95,208.6526 0,-208.6526 -22.24,0 0,241.4996 22.24,0 143.99,-206.5972 -2.04,206.5972 22.57,0 0,-241.4996"
               style="fill:#0f518b;fill-opacity:1;fill-rule:nonzero;stroke:none"
               id="path3935" />
            <path
               inkscape:connector-curvature="0"
               d="m -2971.4176,1766.7077 -19.83,0 0,40.3711 c -2.74,-7.1914 -10.26,-26 -32.84,-37.6289 -11.3,-5.8008 -25.31,-8.8906 -40.37,-8.8906 -66.69,0 -102.6,54.7305 -102.6,124.84 0,74.558 38.3,128.941 108.09,128.941 61.9,0 81.05,-41.39 89.27,-61.211 l -21.55,-11.629 c -2.41,10.258 -14.37,53.36 -66.01,53.36 -49.6,0 -85.51,-40.02 -85.51,-108.09 0,-61.5704 27.36,-106.0313 79.69,-106.0313 57.8,0 72.84,53.3594 71.83,91.3323 l -88.94,0 0,20.859 108.77,0 0,-126.2226"
               style="fill:#0f518b;fill-opacity:1;fill-rule:nonzero;stroke:none"
               id="path3937" />
            <path
               inkscape:connector-curvature="0"
               d="m -2601.3676,1766.7077 -22.56,0 -141.95,208.6526 0,-208.6526 -22.24,0 0,241.4996 22.24,0 144,-206.5972 -2.05,206.5972 22.56,0 0,-241.4996"
               style="fill:#0f518b;fill-opacity:1;fill-rule:nonzero;stroke:none"
               id="path3939" />
            <path
               inkscape:connector-curvature="0"
               d="m -2348.6176,1766.7077 -166.23,0 0,241.4996 157.68,0 0,-21.218 -134.76,0 0,-85.852 122.1,0 0,-21.199 -122.1,0 0,-92.0196 143.31,0 0,-21.211"
               style="fill:#0f518b;fill-opacity:1;fill-rule:nonzero;stroke:none"
               id="path3941" />
            <path
               inkscape:connector-curvature="0"
               d="m -2092.4376,1766.7077 -18.48,0 -57.82,195.3126 -57.45,-195.3126 -18.13,0 -71.47,241.4996 24.61,0 56.79,-200.4566 57.46,200.4566 15.73,0 59.51,-200.4566 55.07,200.4566 23.27,0 -69.09,-241.4996"
               style="fill:#0f518b;fill-opacity:1;fill-rule:nonzero;stroke:none"
               id="path3943" />
            <path
               inkscape:connector-curvature="0"
               d="m -1844.4976,1766.7077 -21.56,0 0,241.4996 82.44,0 c 36.61,0 52.67,0 67.03,-6.527 18.84,-8.883 32.5,-30.082 32.5,-59.512 0,-14.359 -4.43,-54.039 -46.16,-63.269 -11.63,-2.738 -17.11,-2.738 -60.56,-3.422 l -53.69,0 0,-108.7696 z m 0,128.9536 62.6,0 c 28.04,0.339 33.17,0.339 40.02,1.707 24.95,4.113 35.55,22.91 35.55,45.14 0,15.071 -5.11,30.121 -17.45,38.66 -11.26,7.52 -19.12,7.52 -62.23,7.871 l -58.49,0 0,-93.378"
               style="fill:#0f518b;fill-opacity:1;fill-rule:nonzero;stroke:none"
               id="path3945" />
            <path
               inkscape:connector-curvature="0"
               d="m -1462.1176,1766.7077 -166.23,0 0,241.4996 157.68,0 0,-21.218 -134.76,0 0,-85.852 122.09,0 0,-21.199 -122.09,0 0,-92.0196 143.31,0 0,-21.211"
               style="fill:#0f518b;fill-opacity:1;fill-rule:nonzero;stroke:none"
               id="path3947" />
            <path
               inkscape:connector-curvature="0"
               d="m -1205.9576,1766.7077 -28.73,0 -76.28,107.0506 -56.79,0 0,-107.0506 -22.89,0 0,241.8206 67.71,0 c 42.09,-0.321 52.69,-0.321 67.73,-5.481 39.66,-14.008 42.41,-51.968 42.41,-63.937 0,-25.313 -10.93,-39.352 -18.14,-46.531 -17.44,-16.418 -40.36,-17.79 -53.35,-18.821 l 78.33,-107.0506 z m -161.8,126.9026 56.79,0 c 15.74,0 30.44,0.347 40.72,2.39 25.65,5.137 34.87,24.629 34.87,44.118 0,23.621 -11.61,41.39 -35.21,46.171 -6.86,1.379 -9.94,1.379 -40.38,1.719 l -56.79,0 0,-94.398"
               style="fill:#0f518b;fill-opacity:1;fill-rule:nonzero;stroke:none"
               id="path3949" />
            <path
               inkscape:connector-curvature="0"
               d="m -1002.8076,1949.6883 c -2.06,6.172 -4.8,14.371 -10.26,21.562 -11.98,16.758 -31.48,24.289 -52.32,24.289 -26,0 -56.79,-10.96 -56.79,-43.101 0,-29.418 27.02,-37.949 40.71,-42.059 6.84,-2.07 41.38,-10.941 48.88,-13.691 13.02,-4.109 55.77,-18.117 55.77,-63.9571 0,-33.8711 -28.37,-72.1602 -90.29,-72.1602 -25.66,0 -44.14,6.4883 -56.78,14.6875 -18.47,12.3203 -28.73,30.1094 -32.83,52.332 l 22.91,11.9883 c 0.34,-9.5781 1.37,-19.5 5.81,-28.0507 10.95,-22.5782 35.91,-31.1172 60.89,-31.1172 46.53,0 67.02,25.6367 67.02,51.289 0,17.461 -8.19,27.3711 -14.69,32.4884 -10.94,9.23 -24.96,12.66 -56.78,20.871 -34.19,8.898 -72.83,21.559 -72.83,66.352 0,47.539 42.05,62.929 79.67,62.929 61.91,0 77.63,-39.672 83.11,-53 l -21.2,-11.652"
               style="fill:#0f518b;fill-opacity:1;fill-rule:nonzero;stroke:none"
               id="path3951" />
            <path
               inkscape:connector-curvature="0"
               d="m -893.7076,1766.7077 -21.57,0 0,241.4996 82.43,0 c 36.62,0 52.69,0 67.05,-6.527 18.83,-8.883 32.51,-30.082 32.51,-59.512 0,-14.359 -4.46,-54.039 -46.19,-63.269 -11.63,-2.738 -17.11,-2.738 -60.54,-3.422 l -53.69,0 0,-108.7696 z m 0,128.9536 62.58,0 c 28.05,0.339 33.18,0.339 40.02,1.707 24.96,4.113 35.57,22.91 35.57,45.14 0,15.071 -5.12,30.121 -17.43,38.66 -11.3,7.52 -19.15,7.52 -62.27,7.871 l -58.47,0 0,-93.378"
               style="fill:#0f518b;fill-opacity:1;fill-rule:nonzero;stroke:none"
               id="path3953" />
            <path
               inkscape:connector-curvature="0"
               d="m -511.3476,1766.7077 -166.2,0 0,241.4996 157.66,0 0,-21.218 -134.77,0 0,-85.852 122.11,0 0,-21.199 -122.11,0 0,-92.0196 143.31,0 0,-21.211"
               style="fill:#0f518b;fill-opacity:1;fill-rule:nonzero;stroke:none"
               id="path3955" />
            <path
               inkscape:connector-curvature="0"
               d="m -269.8776,1819.3991 c -23.26,-51.3086 -59.51,-58.8398 -89.62,-58.8398 -16.76,0 -51.99,2.3906 -77.28,32.1602 -18.14,21.2109 -28.05,55.3984 -28.05,93.0308 0,51.297 18.47,128.59 103.28,128.59 65,0 82.77,-39.332 93.39,-62.59 l -22.93,-11.972 c -4.45,19.84 -15.73,34.562 -25.65,42.062 -16.06,11.981 -35.24,12.321 -43.78,12.321 -25.99,0 -44.13,-7.512 -59.51,-28.372 -16.75,-22.921 -20.86,-50.64 -20.86,-76.628 0,-16.411 2.05,-55.7622 20.18,-79.6918 18.8,-25.6485 46.84,-28.3907 63.94,-28.3907 11.64,0 25.34,1.3711 37.98,10.2617 8.55,5.8204 21.9,19.8282 27.7,41.0586 l 21.21,-13"
               style="fill:#0f518b;fill-opacity:1;fill-rule:nonzero;stroke:none"
               id="path3957" />
            <path
               inkscape:connector-curvature="0"
               d="m -139.8476,1766.7077 -22.91,0 0,221.3006 -75.95,0 0,20.199 175.14,0 0,-20.199 -76.28,0 0,-221.3006"
               style="fill:#0f518b;fill-opacity:1;fill-rule:nonzero;stroke:none"
               id="path3959" />
            <path
               inkscape:connector-curvature="0"
               d="m -13.9776,1766.7077 22.9219,0 0,241.5 -22.9219,0 0,-241.5 z"
               style="fill:#0f518b;fill-opacity:1;fill-rule:nonzero;stroke:none"
               id="path3961" />
            <path
               inkscape:connector-curvature="0"
               d="m 165.9224,1766.7077 -20.54,0 -88.58,241.4996 25.31,0 73.87,-210.0191 76.3,210.0191 24.25,0 -90.61,-241.4996"
               style="fill:#0f518b;fill-opacity:1;fill-rule:nonzero;stroke:none"
               id="path3963" />
            <path
               inkscape:connector-curvature="0"
               d="m 470.6624,1766.7077 -166.24,0 0,241.4996 157.67,0 0,-21.218 -134.76,0 0,-85.852 122.1,0 0,-21.199 -122.1,0 0,-92.0196 143.33,0 0,-21.211"
               style="fill:#0f518b;fill-opacity:1;fill-rule:nonzero;stroke:none"
               id="path3965" />
            <path
               inkscape:connector-curvature="0"
               d="m 670.7124,1949.6883 c -2.04,6.172 -4.78,14.371 -10.26,21.562 -11.97,16.758 -31.46,24.289 -52.31,24.289 -26,0 -56.78,-10.96 -56.78,-43.101 0,-29.418 27.02,-37.949 40.68,-42.059 6.86,-2.07 41.4,-10.941 48.92,-13.691 13,-4.109 55.76,-18.117 55.76,-63.9571 0,-33.8711 -28.4,-72.1602 -90.3,-72.1602 -25.65,0 -44.12,6.4883 -56.78,14.6875 -18.48,12.3203 -28.73,30.1094 -32.84,52.332 l 22.93,11.9883 c 0.33,-9.5781 1.37,-19.5 5.81,-28.0507 10.95,-22.5782 35.91,-31.1172 60.88,-31.1172 46.52,0 67.03,25.6367 67.03,51.289 0,17.461 -8.2,27.3711 -14.71,32.4884 -10.94,9.23 -24.96,12.66 -56.78,20.871 -34.2,8.898 -72.83,21.559 -72.83,66.352 0,47.539 42.07,62.929 79.68,62.929 61.9,0 77.64,-39.672 83.12,-53 l -21.22,-11.652"
               style="fill:#0f518b;fill-opacity:1;fill-rule:nonzero;stroke:none"
               id="path3967" />
          </g>
          <g
             id="g3385"
             transform="matrix(1.0419457,0,0,1.0419457,-118.68159,-211.39703)"
             inkscape:export-filename="/home/wus/Repos/RD_web.git/assets/RD_Logo_blue_1024.png"
             inkscape:export-xdpi="40.080002"
             inkscape:export-ydpi="40.080002">
            <path
               inkscape:connector-curvature="0"
               d="m -1545.3876,2918.9393 c -7.18,24.79 -19.47,46.93 -36.51,65.81 -37.83,41.86 -97.32,65.4 -172.76,68.51 1.17,4.69 0.73,9.7 -1.42,14.17 -14.83,31.22 -30.98,53.3 -50.75,69.46 1.65,18.03 2.53,36.29 2.53,54.75 0,326.1 -264.34,590.44 -590.42,590.44 -310.79,0 -565.5,-240.14 -588.71,-544.98 l -113.69,27.8 c -5.95,1.45 -12.23,0.25 -17.24,-3.27 -4.98,-3.53 -8.22,-9.07 -8.83,-15.15 -2.7,-26.49 -0.61,-51.82 6.23,-75.34 7.19,-24.81 19.46,-46.95 36.5,-65.83 27.35,-30.27 66.06,-50.88 113.89,-61.18 65.53,-254.69 296.71,-442.898 571.85,-442.898 220.88,0 413.41,121.297 514.66,300.928 l 314.85,-76.97 c 1.63,-0.42 3.32,-0.62 5.01,-0.62 4.33,0 8.59,1.34 12.19,3.9 5.01,3.52 8.25,9.03 8.86,15.14 2.69,26.47 0.58,51.81 -6.24,75.33"
               style="fill:#ffffff;fill-opacity:1;fill-rule:nonzero;stroke:none"
               id="path3969" />
            <path
               inkscape:connector-curvature="0"
               d="m -2477.1276,2896.2193 c -3.99,0 -7.9,0.15 -11.93,0.45 -0.08,0 -0.18,0.01 -0.26,0.03 -20.01,1.77 -39.12,7.8 -56.21,17.49 -2.08,-3.09 -4.98,-5.63 -8.45,-7.28 l -17.79,-8.44 c -14.06,-6.69 -27.53,-11.86 -40.42,-15.66 8.62,-17.39 17.72,-34.01 27.32,-49.68 4.6,-7.52 12.61,-11.43 21.36,-10.47 l 163.53,17.63 c 12.17,1.34 21.06,12.32 19.73,24.52 l -6.98,64.77 c -0.22,-0.2 -0.42,-0.41 -0.64,-0.59 -24.95,-21.14 -56.65,-32.77 -89.26,-32.77"
               style="fill:#89a3cb;fill-opacity:1;fill-rule:nonzero;stroke:none"
               id="path3971" />
            <path
               inkscape:connector-curvature="0"
               d="m -2173.3076,2896.6693 c -4.04,-0.3 -7.94,-0.45 -11.93,-0.45 -32.7,0 -64.48,11.72 -89.45,32.95 -18.41,15.7 -32.33,35.88 -40.46,58.35 -10.63,-2.25 -21.6,-2.32 -32.12,-0.19 -0.33,-0.94 -0.75,-1.85 -1.11,-2.79 l 12.4,-114.96 c 1.31,-12.17 12.33,-21.06 24.52,-19.75 l 163.51,17.65 c 8.76,0.94 15.74,6.49 18.64,14.8 3.42,9.85 6.6,20.04 9.58,30.36 -16.33,-8.79 -34.42,-14.27 -53.32,-15.94 -0.07,-0.02 -0.16,-0.03 -0.26,-0.03"
               style="fill:#89a3cb;fill-opacity:1;fill-rule:nonzero;stroke:none"
               id="path3973" />
            <path
               inkscape:connector-curvature="0"
               d="m -2075.3676,2906.0093 c -2.06,-7.33 -0.51,-14.58 4.43,-20.4 4.92,-5.8 11.79,-8.55 19.35,-7.73 l 106.14,11.46 c 6.94,0.74 12.59,4.24 16.36,10.09 2.7,4.23 5.32,8.51 7.91,12.79 l -143.94,35.19 c -3.07,-14.12 -6.48,-27.94 -10.25,-41.4"
               style="fill:#89a3cb;fill-opacity:1;fill-rule:nonzero;stroke:none"
               id="path3975" />
            <path
               inkscape:connector-curvature="0"
               d="m -2659.4576,2875.2093 c -31.95,0.01 -59.32,12.19 -79.2,35.22 -3.15,3.66 -4.89,8.22 -5.1,12.9 -6.62,-0.58 -13.03,-0.86 -19.21,-0.86 l -0.01,0 c -36.38,0 -66.27,9.71 -91.38,29.77 -12.66,10.11 -23.83,22.61 -34.13,38.3 -1.82,-1.6 -3.4,-3.56 -4.67,-5.82 -3.65,-6.43 -3.94,-13.6 -0.84,-20.32 27.4,-59 64.81,-112.06 109.86,-157.21 4.92,-4.92 11.18,-7.14 18.13,-6.38 l 106.11,11.46 c 7.58,0.8 13.72,4.95 17.28,11.66 3.59,6.74 3.57,14.18 -0.01,20.89 -5.25,9.87 -10.29,20.07 -15.2,30.46 -0.54,0 -1.09,-0.07 -1.63,-0.07"
               style="fill:#89a3cb;fill-opacity:1;fill-rule:nonzero;stroke:none"
               id="path3977" />
            <path
               inkscape:connector-curvature="0"
               d="m -2591.4976,2763.9193 c -4.84,6.45 -12.15,9.63 -20.17,8.78 l -59.09,-6.39 c -5.42,-0.59 -16.05,-1.59 -23.9,-4.15 -23.4,-7.702 4.09,-30.498 14.73,-37.01 65.81,-40.07 140.32,-66.641 219.27,-76.309 -47.49,24.039 -92.45,64.071 -130.84,115.079"
               style="fill:#89a3cb;fill-opacity:1;fill-rule:nonzero;stroke:none"
               id="path3979" />
            <path
               inkscape:connector-curvature="0"
               d="m -2395.2076,2796.0193 -109.4,-11.79 c -60.35,-6.51 32.36,-80.959 46.01,-90.279 32.19,-21.95 67.83,-37.039 100.88,-37.879 l -12.98,120.208 c -1.31,12.2 -12.31,21.08 -24.51,19.74"
               style="fill:#89a3cb;fill-opacity:1;fill-rule:nonzero;stroke:none"
               id="path3981" />
            <path
               inkscape:connector-curvature="0"
               d="m -2197.2876,2817.3893 -109.41,-11.81 c -12.18,-1.32 -21.05,-12.33 -19.73,-24.51 l 12.97,-120.229 c 32.1,7.891 63.67,30.199 90.48,58.547 11.35,11.992 86.04,104.512 25.69,98.002"
               style="fill:#89a3cb;fill-opacity:1;fill-rule:nonzero;stroke:none"
               id="path3983" />
            <path
               inkscape:connector-curvature="0"
               d="m -2006.8976,2836.3593 c -8.23,0.81 -18.83,-0.47 -24.24,-1.06 l -59.11,-6.36 c -7.99,-0.86 -14.47,-5.54 -17.83,-12.88 -26.62,-57.98 -61.99,-106.699 -103.28,-140.32 75.07,26.261 142.2,68.109 197.97,121.33 8.99,8.62 30.99,36.75 6.49,39.29"
               style="fill:#89a3cb;fill-opacity:1;fill-rule:nonzero;stroke:none"
               id="path3985" />
            <path
               inkscape:connector-curvature="0"
               d="m -1923.7076,3179.6393 c 3.15,-3.66 4.9,-8.22 5.11,-12.92 6.62,0.59 13.02,0.9 19.23,0.9 19.25,0 36.68,-2.76 52.54,-8.31 2.4,3.37 3.91,7.42 4.11,11.86 1.21,27.44 0.39,54.97 -2.45,82.3 -3.05,27.3 -8.13,54.39 -15.16,80.95 -2.84,10.69 -12.91,17.6 -23.91,16.41 l -159.45,-17.21 c -6.38,-0.7 -11.63,-3.71 -15.46,-8.89 -3.86,-5.15 -5.18,-11.07 -4,-17.4 4.72,-24.79 8.53,-50.23 11.38,-76.16 0.84,-7.93 1.57,-15.84 2.21,-23.73 16.63,4.87 32.27,7.41 46.65,7.41 31.94,0 59.32,-12.18 79.2,-35.21"
               style="fill:#89a3cb;fill-opacity:1;fill-rule:nonzero;stroke:none"
               id="path3987" />
            <path
               inkscape:connector-curvature="0"
               d="m -2343.0776,3215.4393 c 7.76,1.56 15.93,1.5 23.63,-0.14 11.08,13.26 27.04,21.81 44.86,23.36 1.91,0.17 3.86,0.26 5.82,0.26 17.01,0 33.62,-6.84 46.03,-18.86 0.52,-0.44 1.04,-0.88 1.51,-1.36 l 16.7,-16.45 c 21.98,-1.72 43.17,-9.82 60.69,-23.28 0.79,-0.45 1.54,-0.96 2.27,-1.53 0.41,-0.33 4.17,-3.27 9.78,-7.72 1.95,2.43 4.47,4.43 7.39,5.81 l 31.65,15.06 c -0.83,11.88 -1.83,23.81 -3.1,35.84 -2.99,27.27 -7.1,53.94 -12.23,79.84 -2.27,11.35 -12.72,19.02 -24.21,17.8 l -227.7,-24.57 c -12.18,-1.32 -21.03,-12.31 -19.72,-24.51 l 4.15,-38.58 c 12.72,-3.58 23.99,-10.89 32.48,-20.97"
               style="fill:#89a3cb;fill-opacity:1;fill-rule:nonzero;stroke:none"
               id="path3989" />
            <path
               inkscape:connector-curvature="0"
               d="m -2573.2476,3134.1493 c 0.7,0.63 1.4,1.28 2.11,1.9 21.03,18.55 49.16,40.46 50.35,41.37 0.75,0.59 1.49,1.1 2.29,1.57 17.51,13.46 38.69,21.55 60.68,23.27 l 16.69,16.44 c 0.47,0.46 0.93,0.88 1.42,1.29 5.78,5.61 12.49,10.04 19.73,13.24 l -4,37.01 c -1.33,12.17 -12.33,21.04 -24.51,19.69 l -227.68,-24.55 c -11.5,-1.25 -20.08,-10.96 -19.86,-22.52 0.46,-25.31 2.07,-51.09 4.74,-77.19 l 108.83,-26.62 c 3.48,-0.85 6.64,-2.55 9.21,-4.9"
               style="fill:#89a3cb;fill-opacity:1;fill-rule:nonzero;stroke:none"
               id="path3991" />
            <path
               inkscape:connector-curvature="0"
               d="m -2740.1776,3234.2993 c -0.18,6.43 -2.74,11.92 -7.59,16.16 -4.86,4.23 -10.64,6.05 -17.03,5.35 l -159.45,-17.19 c -7.63,-0.8 -13.9,-5.39 -17.25,-11.77 l 204.59,-50.03 c -1.67,19.34 -2.75,38.54 -3.27,57.48"
               style="fill:#89a3cb;fill-opacity:1;fill-rule:nonzero;stroke:none"
               id="path3993" />
            <path
               inkscape:connector-curvature="0"
               d="m -2144.2076,3564.6993 c -3.55,-6.72 -3.54,-14.12 0.02,-20.87 24.08,-45.29 44.65,-96.19 60.65,-151.27 3.04,-10.45 12.93,-17.08 23.75,-15.93 l 149.18,16.1 c 7.33,0.79 13.35,4.74 16.98,11.21 3.62,6.41 3.91,13.59 0.82,20.31 -27.39,59.01 -64.81,112.09 -109.85,157.22 -4.93,4.92 -11.21,7.13 -18.13,6.39 l -106.13,-11.44 c -7.57,-0.83 -13.7,-5 -17.29,-11.72"
               style="fill:#89a3cb;fill-opacity:1;fill-rule:nonzero;stroke:none"
               id="path3995" />
            <path
               inkscape:connector-curvature="0"
               d="m -2223.3176,3565.9993 -163.51,-17.62 c -12.18,-1.32 -21.05,-12.35 -19.73,-24.52 l 17.31,-160.35 c 1.28,-12.19 12.32,-21.09 24.48,-19.79 l 215.16,23.23 c 6.85,0.75 12.43,4.18 16.22,9.93 3.77,5.76 4.68,12.26 2.62,18.85 -18.58,59.62 -42.83,113.6 -71.18,159.79 -4.61,7.5 -12.59,11.45 -21.37,10.48"
               style="fill:#89a3cb;fill-opacity:1;fill-rule:nonzero;stroke:none"
               id="path3997" />
            <path
               inkscape:connector-curvature="0"
               d="m -2475.3376,3538.8193 -163.53,-17.64 c -8.76,-0.94 -15.72,-6.5 -18.62,-14.82 -17.84,-51.16 -30,-109.08 -35.48,-171.29 -0.6,-6.86 1.68,-13.01 6.61,-17.83 4.92,-4.83 11.12,-6.98 17.97,-6.25 l 215.12,23.22 c 12.19,1.31 21.06,12.33 19.75,24.53 l -17.3,160.33 c -1.32,12.2 -12.34,21.06 -24.52,19.75"
               style="fill:#89a3cb;fill-opacity:1;fill-rule:nonzero;stroke:none"
               id="path3999" />
            <path
               inkscape:connector-curvature="0"
               d="m -2907.3976,3285.1993 149.16,16.1 c 10.83,1.18 19.08,9.74 19.8,20.62 3.89,57.22 13.15,111.33 27.01,160.71 2.05,7.35 0.49,14.6 -4.45,20.4 -4.91,5.81 -11.79,8.57 -19.36,7.76 l -106.14,-11.47 c -6.93,-0.74 -12.57,-4.24 -16.34,-10.1 -34.39,-53.71 -59.61,-113.51 -73.79,-177.04 -1.6,-7.21 0.2,-14.15 5.15,-19.67 4.92,-5.52 11.61,-8.08 18.96,-7.31"
               style="fill:#89a3cb;fill-opacity:1;fill-rule:nonzero;stroke:none"
               id="path4001" />
            <path
               inkscape:connector-curvature="0"
               d="m -2779.8876,3552.3093 c 8.22,-0.84 18.8,0.45 24.23,1.02 l 59.09,6.39 c 8.02,0.87 14.48,5.52 17.84,12.86 26.63,58.01 62,106.7 103.27,140.34 -75.06,-26.27 -142.2,-68.13 -197.93,-121.34 -9.02,-8.58 -31.01,-36.75 -6.5,-39.27"
               style="fill:#89a3cb;fill-opacity:1;fill-rule:nonzero;stroke:none"
               id="path4003" />
            <path
               inkscape:connector-curvature="0"
               d="m -2589.5176,3571.2593 109.41,11.82 c 12.18,1.3 21.04,12.3 19.74,24.51 l -12.97,120.23 c -32.1,-7.87 -63.69,-30.2 -90.5,-58.56 -11.33,-12 -86.03,-104.5 -25.68,-98"
               style="fill:#89a3cb;fill-opacity:1;fill-rule:nonzero;stroke:none"
               id="path4005" />
            <path
               inkscape:connector-curvature="0"
               d="m -2391.5976,3592.6193 109.39,11.79 c 60.36,6.52 -32.35,80.97 -45.97,90.29 -32.25,21.95 -67.88,37.04 -100.9,37.88 l 12.96,-120.21 c 1.33,-12.21 12.33,-21.06 24.52,-19.75"
               style="fill:#89a3cb;fill-opacity:1;fill-rule:nonzero;stroke:none"
               id="path4007" />
            <path
               inkscape:connector-curvature="0"
               d="m -2195.2976,3624.7293 c 4.82,-6.44 12.15,-9.62 20.14,-8.76 l 59.12,6.38 c 5.41,0.57 16.02,1.58 23.88,4.14 23.41,7.72 -4.08,30.53 -14.71,37.02 -65.8,40.07 -140.33,66.67 -219.27,76.3 47.48,-24.04 92.43,-64.08 130.84,-115.08"
               style="fill:#89a3cb;fill-opacity:1;fill-rule:nonzero;stroke:none"
               id="path4009" />
            <path
               inkscape:connector-curvature="0"
               d="m -2579.4576,2941.3093 c -4.68,5.14 -8.93,10.59 -12.76,16.29 -74.92,-19.16 -130.43,-33.34 -130.43,-33.34 23.25,-26.95 64.98,-43.19 141.81,-6.69 5.38,2.55 11.34,5.39 17.78,8.46 -5.83,4.6 -11.31,9.72 -16.4,15.28"
               style="fill:#0f518b;fill-opacity:1;fill-rule:nonzero;stroke:none"
               id="path4011" />
            <path
               inkscape:connector-curvature="0"
               d="m -2887.1676,3031.6993 c 30.35,-63.89 76.04,-107.47 185.81,-79.41 29.61,7.54 63.67,16.25 98.13,25.07 -7.7,16.94 -11.94,35.34 -12.32,54.25 l -271.62,0.09"
               style="fill:#0f518b;fill-opacity:1;fill-rule:nonzero;stroke:none"
               id="path4013" />
            <path
               inkscape:connector-curvature="0"
               d="m -3102.1476,3244.3393 c -10.04,-98.76 53.26,-186.69 211.73,-186.74 77.15,-0.02 184.2,-0.06 276.74,-0.09 3.76,22.5 12.87,43.63 26.19,61.01 -149.94,36.66 -514.66,125.82 -514.66,125.82"
               style="fill:#0f518b;fill-opacity:1;fill-rule:nonzero;stroke:none"
               id="path4015" />
            <path
               inkscape:connector-curvature="0"
               d="m -2083.8476,3128.9693 c 81.76,20.91 144.12,36.84 144.12,36.84 -23.21,26.95 -64.95,43.18 -141.78,6.68 -9.59,-4.55 -21.03,-9.98 -33.83,-16.06 7.9,-6.47 16.48,-13.64 24.14,-20.38 2.55,-2.26 5,-4.61 7.35,-7.08"
               style="fill:#0f518b;fill-opacity:1;fill-rule:nonzero;stroke:none"
               id="path4017" />
            <path
               inkscape:connector-curvature="0"
               d="m -1775.1776,3058.3693 c -30.39,63.89 -76.04,107.48 -185.81,79.42 -32.43,-8.29 -70.21,-17.94 -108,-27.59 9.96,-15.37 16.89,-33.06 20.15,-51.73 l 273.66,-0.1"
               style="fill:#0f518b;fill-opacity:1;fill-rule:nonzero;stroke:none"
               id="path4019" />
            <path
               inkscape:connector-curvature="0"
               d="m -1771.9276,3032.4493 c -76.62,0.02 -182.76,0.08 -274.87,0.12 -0.3,-22.49 -6.05,-44.32 -16.61,-63.83 156.23,-38.17 503.21,-123 503.21,-123 10.03,98.77 -53.29,186.65 -211.73,186.71"
               style="fill:#0f518b;fill-opacity:1;fill-rule:nonzero;stroke:none"
               id="path4021" />
            <path
               inkscape:connector-curvature="0"
               d="m -2105.1876,3120.1493 c -20.8,18.36 -49.38,40.6 -49.38,40.6 l -0.32,0 c -16.12,13.08 -36.63,20.74 -58.68,20.7 l -22.5,22.18 0,-0.17 c -9.15,9.68 -22.37,15.4 -36.67,14.12 -17.66,-1.54 -31.87,-13.08 -37.97,-28.5 -5.99,4.01 -13.2,6.35 -20.96,6.35 -7.45,0 -14.34,-2.2 -20.18,-5.91 -6.2,15.19 -20.28,26.56 -37.75,28.06 -14.32,1.28 -27.52,-4.44 -36.68,-14.12 l 0.01,0.17 -22.52,-22.18 c -22.04,0.04 -42.56,-7.62 -58.68,-20.7 l -0.32,0 c 0,0 -28.57,-22.24 -49.39,-40.6 -20.74,-18.25 -34.17,-45.38 -36.83,-75.39 -0.32,-3.44 -0.41,-6.95 -0.41,-10.32 0,-60.19 45.94,-111.25 106.98,-116.68 3.46,-0.25 6.86,-0.38 10.31,-0.38 57.1,0 105.93,41.42 115.4,97.73 8.91,-5.03 19.08,-8.18 30.07,-8.18 11.36,0 21.86,3.31 30.95,8.69 9.27,-56.55 58.21,-98.24 115.47,-98.24 3.45,0 6.84,0.13 10.34,0.38 61.01,5.43 106.96,56.49 106.96,116.68 0,3.37 -0.11,6.88 -0.42,10.32 -2.64,30.01 -16.08,57.14 -36.83,75.39 m -293.85,-92.55 c -3.6,-40.81 -37.89,-71.53 -78.11,-71.53 -2.27,0 -4.64,0.05 -6.99,0.26 -40.82,3.52 -71.64,37.9 -71.64,78.11 0,2.33 0.11,4.65 0.32,6.83 3.55,40.94 37.85,71.8 78.02,71.8 l 0.06,0 c 2.38,0 4.6,-0.09 6.74,-0.3 41.11,-3.55 71.89,-37.89 71.89,-78.13 0,-2.28 -0.1,-4.6 -0.29,-7.04 z m 67.38,9.32 c -17.34,0.03 -31.38,14.06 -31.41,31.34 0.03,17.36 14.07,31.37 31.41,31.42 17.32,-0.05 31.35,-14.06 31.35,-31.42 0,-17.28 -14.03,-31.31 -31.35,-31.34 m 153.44,-80.59 c -2.35,-0.21 -4.71,-0.26 -6.99,-0.26 -40.22,0 -74.53,30.72 -78.13,71.53 l 0.03,0 c -0.21,2.44 -0.29,4.76 -0.29,7.04 0,40.24 30.8,74.58 71.88,78.13 2.13,0.21 4.36,0.3 6.72,0.3 l 0.06,0 c 40.19,0 74.49,-30.86 78.06,-71.8 0.22,-2.18 0.3,-4.5 0.3,-6.83 0,-40.21 -30.82,-74.59 -71.64,-78.11"
               style="fill:#0f518b;fill-opacity:1;fill-rule:nonzero;stroke:none"
               id="path4023" />
          </g>
        </g>
      </g>
    </g>
  </g>
</svg>
